<?xml version="1.0" standalone="no"?>
<!DOCTYPE svg PUBLIC "-//W3C//DTD SVG 20010904//EN"
 "http://www.w3.org/TR/2001/REC-SVG-20010904/DTD/svg10.dtd">
<svg version="1.0" xmlns="http://www.w3.org/2000/svg"
 width="500.000000pt" height="500.000000pt" viewBox="0 0 500.000000 500.000000"
 preserveAspectRatio="xMidYMid meet">
<metadata>
Created by potrace 1.14, written by Peter Selinger 2001-2017
</metadata>
<g transform="translate(0.000000,500.000000) scale(0.100000,-0.100000)"
fill="#000000" stroke="none">
<path d="M1075 4985 c-490 -77 -894 -430 -1025 -898 -50 -176 -50 -171 -50
-1587 0 -1416 0 -1411 50 -1587 114 -408 455 -749 863 -863 176 -50 171 -50
1587 -50 1416 0 1411 0 1587 50 408 114 749 455 863 863 50 176 50 171 50
1587 0 1416 0 1411 -50 1587 -114 408 -455 749 -863 863 -177 50 -169 50
-1597 49 -1019 -1 -1354 -4 -1415 -14z m400 -1344 c29 -13 226 -212 715 -723
l675 -704 3 708 2 708 255 0 255 0 0 -830 0 -830 750 0 750 0 0 -185 0 -185
-859 0 c-766 0 -863 -2 -897 -16 -51 -21 -123 -14 -166 16 -18 13 -334 338
-703 724 l-670 700 -3 -712 -2 -712 -185 0 -185 0 0 950 c0 1040 -3 989 58
1054 54 57 133 71 207 37z m-865 -1026 l0 -1015 -190 0 -190 0 0 1015 0 1015
190 0 190 0 0 -1015z"/>
</g>
</svg>
